<svg xmlns="http://www.w3.org/2000/svg" width="224" height="338" viewBox="0 0 224 338"><defs><style>.cls-1{fill:#c4acb5;}.cls-2{fill:#ff4c90;}.cls-3{fill:none;stroke:#000;stroke-miterlimit:10;stroke-width:8px;}</style></defs><title>Asset 2</title><g id="Layer_2" data-name="Layer 2"><g id="Layer_1-2" data-name="Layer 1"><path class="cls-1" d="M147.41,135.66a17.2,17.2,0,0,1,4.9,11.8q0,9.19-10,18.6a128.5,128.5,0,0,1-32.1,21.7,138.84,138.84,0,0,1-37.3,12.3,10.8,10.8,0,0,1-2.4.4q-5,33.4-7.4,60.8-.4,3.8-5.6,6.6a21.73,21.73,0,0,1-10.4,2.8,8.13,8.13,0,0,1-4.6-1.2,3.64,3.64,0,0,1-1.6-3.6q3.2-32,8.2-67.2-9.4-4-9.4-14.2a32,32,0,0,1,2-10.2q1-2.59,4.8-4.5a22.25,22.25,0,0,1,7.8-2.3q3.4-19.61,9.8-47.2-9.8-7-10.6-17.8-.19-3.6,4.6-6.5a18.78,18.78,0,0,1,9.8-2.9c4.53,0,6.87,1.67,7,5a13.49,13.49,0,0,0,3.4,8.2,16.93,16.93,0,0,1,3-.2c4.27,0,6.13,1.47,5.6,4.4l-.6,2a65.17,65.17,0,0,0,13.8,5.7q7.8,2.3,18.6,4.7,11.21,2.6,14.6,4Q142.51,130.26,147.41,135.66Zm-14.5,16.2q0-7.8-9.8-11.9t-25.8-7.5a79.57,79.57,0,0,1-8.8-2l-5.6-1.8q-6.6,33.41-10.4,58.6,7.2-.8,20.6-6.2Q132.91,165.46,132.91,151.86Z" transform="translate(0 -18.77)"/><path class="cls-2" d="M80.26,244.6a17.2,17.2,0,0,1-4.9-11.8q0-9.2,10-18.6a128.5,128.5,0,0,1,32.1-21.7,138.84,138.84,0,0,1,37.3-12.3,10.8,10.8,0,0,1,2.4-.4q5-33.41,7.4-60.8.41-3.8,5.6-6.6a21.73,21.73,0,0,1,10.4-2.8,8.13,8.13,0,0,1,4.6,1.2,3.64,3.64,0,0,1,1.6,3.6q-3.19,32-8.2,67.2,9.41,4,9.4,14.2a32,32,0,0,1-2,10.2q-1,2.59-4.8,4.5a22.25,22.25,0,0,1-7.8,2.3q-3.41,19.6-9.8,47.2,9.8,7,10.6,17.8.19,3.6-4.6,6.5a18.78,18.78,0,0,1-9.8,2.9c-4.53,0-6.87-1.67-7-5a13.49,13.49,0,0,0-3.4-8.2,16.93,16.93,0,0,1-3,.2c-4.27,0-6.13-1.47-5.6-4.4l.6-2a65.17,65.17,0,0,0-13.8-5.7q-7.8-2.3-18.6-4.7-11.2-2.59-14.6-4Q85.17,250,80.26,244.6Zm14.5-16.2q0,7.8,9.8,11.9t25.8,7.5a79.57,79.57,0,0,1,8.8,2l5.6,1.8q6.6-33.4,10.4-58.6-7.2.8-20.6,6.2Q94.77,214.8,94.76,228.4Z" transform="translate(0 -18.77)"/><rect class="cls-3" x="4" y="4" width="216" height="330"/></g></g></svg>